<svg xmlns="http://www.w3.org/2000/svg" xmlns:xlink="http://www.w3.org/1999/xlink" xmlns:s="https://github.com/nturley/netlistsvg" width="1050" height="775.5"><style>svg {
  stroke:#000;
  fill:none;
}
text {
  fill:#000;
  stroke:none;
  font-size:10px;
  font-weight: bold;
  font-family: "Courier New", monospace;
}
line {
    stroke-linecap: round;
}
.nodelabel {
  text-anchor: middle;
}
.inputPortLabel {
  text-anchor: end;
}
.splitjoinBody {
  fill:#000;
}</style><g s:type="generic" transform="translate(728,449)" s:width="30" s:height="40" id="cell_$abc$162$auto$blifparse.cc:386:parse_blif$163"><text x="15" y="-4" class="nodelabel cell_$abc$162$auto$blifparse.cc:386:parse_blif$163" s:attribute="ref">sky130_fd_sc_hd__nor2_1</text><rect width="30" height="40" s:generic="body" class="cell_$abc$162$auto$blifparse.cc:386:parse_blif$163"/><g transform="translate(0,10)" s:x="0" s:y="10" s:pid="in0" id="port_$abc$162$auto$blifparse.cc:386:parse_blif$163~A"><text x="-3" y="-4" class="inputPortLabel cell_$abc$162$auto$blifparse.cc:386:parse_blif$163">A</text></g><g transform="translate(0,30)" s:x="0" s:y="10" s:pid="in0" id="port_$abc$162$auto$blifparse.cc:386:parse_blif$163~B"><text x="-3" y="-4" class="inputPortLabel cell_$abc$162$auto$blifparse.cc:386:parse_blif$163">B</text></g><g transform="translate(30,10)" s:x="30" s:y="10" s:pid="out0" id="port_$abc$162$auto$blifparse.cc:386:parse_blif$163~Y"><text x="5" y="-4" style="fill:#000; stroke:none" class="cell_$abc$162$auto$blifparse.cc:386:parse_blif$163">Y</text></g></g><g s:type="generic" transform="translate(410,588.5)" s:width="30" s:height="40" id="cell_$abc$162$auto$blifparse.cc:386:parse_blif$164"><text x="15" y="-4" class="nodelabel cell_$abc$162$auto$blifparse.cc:386:parse_blif$164" s:attribute="ref">sky130_fd_sc_hd__o21bai_1</text><rect width="30" height="60" s:generic="body" class="cell_$abc$162$auto$blifparse.cc:386:parse_blif$164"/><g transform="translate(0,10)" s:x="0" s:y="10" s:pid="in0" id="port_$abc$162$auto$blifparse.cc:386:parse_blif$164~A1"><text x="-3" y="-4" class="inputPortLabel cell_$abc$162$auto$blifparse.cc:386:parse_blif$164">A1</text></g><g transform="translate(0,30)" s:x="0" s:y="10" s:pid="in0" id="port_$abc$162$auto$blifparse.cc:386:parse_blif$164~A2"><text x="-3" y="-4" class="inputPortLabel cell_$abc$162$auto$blifparse.cc:386:parse_blif$164">A2</text></g><g transform="translate(0,50)" s:x="0" s:y="10" s:pid="in0" id="port_$abc$162$auto$blifparse.cc:386:parse_blif$164~B1_N"><text x="-3" y="-4" class="inputPortLabel cell_$abc$162$auto$blifparse.cc:386:parse_blif$164">B1_N</text></g><g transform="translate(30,10)" s:x="30" s:y="10" s:pid="out0" id="port_$abc$162$auto$blifparse.cc:386:parse_blif$164~Y"><text x="5" y="-4" style="fill:#000; stroke:none" class="cell_$abc$162$auto$blifparse.cc:386:parse_blif$164">Y</text></g></g><g s:type="generic" transform="translate(728,537)" s:width="30" s:height="40" id="cell_$abc$162$auto$blifparse.cc:386:parse_blif$165"><text x="15" y="-4" class="nodelabel cell_$abc$162$auto$blifparse.cc:386:parse_blif$165" s:attribute="ref">sky130_fd_sc_hd__a21oi_1</text><rect width="30" height="60" s:generic="body" class="cell_$abc$162$auto$blifparse.cc:386:parse_blif$165"/><g transform="translate(0,10)" s:x="0" s:y="10" s:pid="in0" id="port_$abc$162$auto$blifparse.cc:386:parse_blif$165~A1"><text x="-3" y="-4" class="inputPortLabel cell_$abc$162$auto$blifparse.cc:386:parse_blif$165">A1</text></g><g transform="translate(0,30)" s:x="0" s:y="10" s:pid="in0" id="port_$abc$162$auto$blifparse.cc:386:parse_blif$165~A2"><text x="-3" y="-4" class="inputPortLabel cell_$abc$162$auto$blifparse.cc:386:parse_blif$165">A2</text></g><g transform="translate(0,50)" s:x="0" s:y="10" s:pid="in0" id="port_$abc$162$auto$blifparse.cc:386:parse_blif$165~B1"><text x="-3" y="-4" class="inputPortLabel cell_$abc$162$auto$blifparse.cc:386:parse_blif$165">B1</text></g><g transform="translate(30,10)" s:x="30" s:y="10" s:pid="out0" id="port_$abc$162$auto$blifparse.cc:386:parse_blif$165~Y"><text x="5" y="-4" style="fill:#000; stroke:none" class="cell_$abc$162$auto$blifparse.cc:386:parse_blif$165">Y</text></g></g><g s:type="generic" transform="translate(410,278.5)" s:width="30" s:height="40" id="cell_$abc$162$auto$blifparse.cc:386:parse_blif$166"><text x="15" y="-4" class="nodelabel cell_$abc$162$auto$blifparse.cc:386:parse_blif$166" s:attribute="ref">sky130_fd_sc_hd__and3_1</text><rect width="30" height="60" s:generic="body" class="cell_$abc$162$auto$blifparse.cc:386:parse_blif$166"/><g transform="translate(0,10)" s:x="0" s:y="10" s:pid="in0" id="port_$abc$162$auto$blifparse.cc:386:parse_blif$166~A"><text x="-3" y="-4" class="inputPortLabel cell_$abc$162$auto$blifparse.cc:386:parse_blif$166">A</text></g><g transform="translate(0,30)" s:x="0" s:y="10" s:pid="in0" id="port_$abc$162$auto$blifparse.cc:386:parse_blif$166~B"><text x="-3" y="-4" class="inputPortLabel cell_$abc$162$auto$blifparse.cc:386:parse_blif$166">B</text></g><g transform="translate(0,50)" s:x="0" s:y="10" s:pid="in0" id="port_$abc$162$auto$blifparse.cc:386:parse_blif$166~C"><text x="-3" y="-4" class="inputPortLabel cell_$abc$162$auto$blifparse.cc:386:parse_blif$166">C</text></g><g transform="translate(30,10)" s:x="30" s:y="10" s:pid="out0" id="port_$abc$162$auto$blifparse.cc:386:parse_blif$166~X"><text x="5" y="-4" style="fill:#000; stroke:none" class="cell_$abc$162$auto$blifparse.cc:386:parse_blif$166">X</text></g></g><g s:type="generic" transform="translate(410,395.5)" s:width="30" s:height="40" id="cell_$abc$162$auto$blifparse.cc:386:parse_blif$167"><text x="15" y="-4" class="nodelabel cell_$abc$162$auto$blifparse.cc:386:parse_blif$167" s:attribute="ref">sky130_fd_sc_hd__a21oi_1</text><rect width="30" height="60" s:generic="body" class="cell_$abc$162$auto$blifparse.cc:386:parse_blif$167"/><g transform="translate(0,10)" s:x="0" s:y="10" s:pid="in0" id="port_$abc$162$auto$blifparse.cc:386:parse_blif$167~A1"><text x="-3" y="-4" class="inputPortLabel cell_$abc$162$auto$blifparse.cc:386:parse_blif$167">A1</text></g><g transform="translate(0,30)" s:x="0" s:y="10" s:pid="in0" id="port_$abc$162$auto$blifparse.cc:386:parse_blif$167~A2"><text x="-3" y="-4" class="inputPortLabel cell_$abc$162$auto$blifparse.cc:386:parse_blif$167">A2</text></g><g transform="translate(0,50)" s:x="0" s:y="10" s:pid="in0" id="port_$abc$162$auto$blifparse.cc:386:parse_blif$167~B1"><text x="-3" y="-4" class="inputPortLabel cell_$abc$162$auto$blifparse.cc:386:parse_blif$167">B1</text></g><g transform="translate(30,10)" s:x="30" s:y="10" s:pid="out0" id="port_$abc$162$auto$blifparse.cc:386:parse_blif$167~Y"><text x="5" y="-4" style="fill:#000; stroke:none" class="cell_$abc$162$auto$blifparse.cc:386:parse_blif$167">Y</text></g></g><g s:type="generic" transform="translate(728,341)" s:width="30" s:height="40" id="cell_$abc$162$auto$blifparse.cc:386:parse_blif$168"><text x="15" y="-4" class="nodelabel cell_$abc$162$auto$blifparse.cc:386:parse_blif$168" s:attribute="ref">sky130_fd_sc_hd__nor3_1</text><rect width="30" height="60" s:generic="body" class="cell_$abc$162$auto$blifparse.cc:386:parse_blif$168"/><g transform="translate(0,10)" s:x="0" s:y="10" s:pid="in0" id="port_$abc$162$auto$blifparse.cc:386:parse_blif$168~A"><text x="-3" y="-4" class="inputPortLabel cell_$abc$162$auto$blifparse.cc:386:parse_blif$168">A</text></g><g transform="translate(0,30)" s:x="0" s:y="10" s:pid="in0" id="port_$abc$162$auto$blifparse.cc:386:parse_blif$168~B"><text x="-3" y="-4" class="inputPortLabel cell_$abc$162$auto$blifparse.cc:386:parse_blif$168">B</text></g><g transform="translate(0,50)" s:x="0" s:y="10" s:pid="in0" id="port_$abc$162$auto$blifparse.cc:386:parse_blif$168~C"><text x="-3" y="-4" class="inputPortLabel cell_$abc$162$auto$blifparse.cc:386:parse_blif$168">C</text></g><g transform="translate(30,10)" s:x="30" s:y="10" s:pid="out0" id="port_$abc$162$auto$blifparse.cc:386:parse_blif$168~Y"><text x="5" y="-4" style="fill:#000; stroke:none" class="cell_$abc$162$auto$blifparse.cc:386:parse_blif$168">Y</text></g></g><g s:type="generic" transform="translate(410,130.5)" s:width="30" s:height="40" id="cell_$abc$162$auto$blifparse.cc:386:parse_blif$169"><text x="15" y="-4" class="nodelabel cell_$abc$162$auto$blifparse.cc:386:parse_blif$169" s:attribute="ref">sky130_fd_sc_hd__a41oi_1</text><rect width="30" height="100" s:generic="body" class="cell_$abc$162$auto$blifparse.cc:386:parse_blif$169"/><g transform="translate(0,10)" s:x="0" s:y="10" s:pid="in0" id="port_$abc$162$auto$blifparse.cc:386:parse_blif$169~A1"><text x="-3" y="-4" class="inputPortLabel cell_$abc$162$auto$blifparse.cc:386:parse_blif$169">A1</text></g><g transform="translate(0,30)" s:x="0" s:y="10" s:pid="in0" id="port_$abc$162$auto$blifparse.cc:386:parse_blif$169~A2"><text x="-3" y="-4" class="inputPortLabel cell_$abc$162$auto$blifparse.cc:386:parse_blif$169">A2</text></g><g transform="translate(0,50)" s:x="0" s:y="10" s:pid="in0" id="port_$abc$162$auto$blifparse.cc:386:parse_blif$169~A3"><text x="-3" y="-4" class="inputPortLabel cell_$abc$162$auto$blifparse.cc:386:parse_blif$169">A3</text></g><g transform="translate(0,70)" s:x="0" s:y="10" s:pid="in0" id="port_$abc$162$auto$blifparse.cc:386:parse_blif$169~A4"><text x="-3" y="-4" class="inputPortLabel cell_$abc$162$auto$blifparse.cc:386:parse_blif$169">A4</text></g><g transform="translate(0,90)" s:x="0" s:y="10" s:pid="in0" id="port_$abc$162$auto$blifparse.cc:386:parse_blif$169~B1"><text x="-3" y="-4" class="inputPortLabel cell_$abc$162$auto$blifparse.cc:386:parse_blif$169">B1</text></g><g transform="translate(30,10)" s:x="30" s:y="10" s:pid="out0" id="port_$abc$162$auto$blifparse.cc:386:parse_blif$169~Y"><text x="5" y="-4" style="fill:#000; stroke:none" class="cell_$abc$162$auto$blifparse.cc:386:parse_blif$169">Y</text></g></g><g s:type="generic" transform="translate(728,90.5)" s:width="30" s:height="40" id="cell_$abc$162$auto$blifparse.cc:386:parse_blif$170"><text x="15" y="-4" class="nodelabel cell_$abc$162$auto$blifparse.cc:386:parse_blif$170" s:attribute="ref">sky130_fd_sc_hd__o21a_1</text><rect width="30" height="60" s:generic="body" class="cell_$abc$162$auto$blifparse.cc:386:parse_blif$170"/><g transform="translate(0,10)" s:x="0" s:y="10" s:pid="in0" id="port_$abc$162$auto$blifparse.cc:386:parse_blif$170~A1"><text x="-3" y="-4" class="inputPortLabel cell_$abc$162$auto$blifparse.cc:386:parse_blif$170">A1</text></g><g transform="translate(0,30)" s:x="0" s:y="10" s:pid="in0" id="port_$abc$162$auto$blifparse.cc:386:parse_blif$170~A2"><text x="-3" y="-4" class="inputPortLabel cell_$abc$162$auto$blifparse.cc:386:parse_blif$170">A2</text></g><g transform="translate(0,50)" s:x="0" s:y="10" s:pid="in0" id="port_$abc$162$auto$blifparse.cc:386:parse_blif$170~B1"><text x="-3" y="-4" class="inputPortLabel cell_$abc$162$auto$blifparse.cc:386:parse_blif$170">B1</text></g><g transform="translate(30,10)" s:x="30" s:y="10" s:pid="out0" id="port_$abc$162$auto$blifparse.cc:386:parse_blif$170~X"><text x="5" y="-4" style="fill:#000; stroke:none" class="cell_$abc$162$auto$blifparse.cc:386:parse_blif$170">X</text></g></g><g s:type="generic" transform="translate(121,588.5)" s:width="30" s:height="40" id="cell_$auto$ff.cc:266:slice$94"><text x="15" y="-4" class="nodelabel cell_$auto$ff.cc:266:slice$94" s:attribute="ref">sky130_fd_sc_hd__dfxtp_1</text><rect width="30" height="40" s:generic="body" class="cell_$auto$ff.cc:266:slice$94"/><g transform="translate(0,10)" s:x="0" s:y="10" s:pid="in0" id="port_$auto$ff.cc:266:slice$94~CLK"><text x="-3" y="-4" class="inputPortLabel cell_$auto$ff.cc:266:slice$94">CLK</text></g><g transform="translate(0,30)" s:x="0" s:y="10" s:pid="in0" id="port_$auto$ff.cc:266:slice$94~D"><text x="-3" y="-4" class="inputPortLabel cell_$auto$ff.cc:266:slice$94">D</text></g><g transform="translate(30,10)" s:x="30" s:y="10" s:pid="out0" id="port_$auto$ff.cc:266:slice$94~Q"><text x="5" y="-4" style="fill:#000; stroke:none" class="cell_$auto$ff.cc:266:slice$94">Q</text></g></g><g s:type="generic" transform="translate(121,676.5)" s:width="30" s:height="40" id="cell_$auto$ff.cc:266:slice$95"><text x="15" y="-4" class="nodelabel cell_$auto$ff.cc:266:slice$95" s:attribute="ref">sky130_fd_sc_hd__dfxtp_1</text><rect width="30" height="40" s:generic="body" class="cell_$auto$ff.cc:266:slice$95"/><g transform="translate(0,10)" s:x="0" s:y="10" s:pid="in0" id="port_$auto$ff.cc:266:slice$95~CLK"><text x="-3" y="-4" class="inputPortLabel cell_$auto$ff.cc:266:slice$95">CLK</text></g><g transform="translate(0,30)" s:x="0" s:y="10" s:pid="in0" id="port_$auto$ff.cc:266:slice$95~D"><text x="-3" y="-4" class="inputPortLabel cell_$auto$ff.cc:266:slice$95">D</text></g><g transform="translate(30,10)" s:x="30" s:y="10" s:pid="out0" id="port_$auto$ff.cc:266:slice$95~Q"><text x="5" y="-4" style="fill:#000; stroke:none" class="cell_$auto$ff.cc:266:slice$95">Q</text></g></g><g s:type="generic" transform="translate(121,500.5)" s:width="30" s:height="40" id="cell_$auto$ff.cc:266:slice$96"><text x="15" y="-4" class="nodelabel cell_$auto$ff.cc:266:slice$96" s:attribute="ref">sky130_fd_sc_hd__dfxtp_1</text><rect width="30" height="40" s:generic="body" class="cell_$auto$ff.cc:266:slice$96"/><g transform="translate(0,10)" s:x="0" s:y="10" s:pid="in0" id="port_$auto$ff.cc:266:slice$96~CLK"><text x="-3" y="-4" class="inputPortLabel cell_$auto$ff.cc:266:slice$96">CLK</text></g><g transform="translate(0,30)" s:x="0" s:y="10" s:pid="in0" id="port_$auto$ff.cc:266:slice$96~D"><text x="-3" y="-4" class="inputPortLabel cell_$auto$ff.cc:266:slice$96">D</text></g><g transform="translate(30,10)" s:x="30" s:y="10" s:pid="out0" id="port_$auto$ff.cc:266:slice$96~Q"><text x="5" y="-4" style="fill:#000; stroke:none" class="cell_$auto$ff.cc:266:slice$96">Q</text></g></g><g s:type="generic" transform="translate(121,276.5)" s:width="30" s:height="40" id="cell_$auto$ff.cc:266:slice$97"><text x="15" y="-4" class="nodelabel cell_$auto$ff.cc:266:slice$97" s:attribute="ref">sky130_fd_sc_hd__dfxtp_1</text><rect width="30" height="40" s:generic="body" class="cell_$auto$ff.cc:266:slice$97"/><g transform="translate(0,10)" s:x="0" s:y="10" s:pid="in0" id="port_$auto$ff.cc:266:slice$97~CLK"><text x="-3" y="-4" class="inputPortLabel cell_$auto$ff.cc:266:slice$97">CLK</text></g><g transform="translate(0,30)" s:x="0" s:y="10" s:pid="in0" id="port_$auto$ff.cc:266:slice$97~D"><text x="-3" y="-4" class="inputPortLabel cell_$auto$ff.cc:266:slice$97">D</text></g><g transform="translate(30,10)" s:x="30" s:y="10" s:pid="out0" id="port_$auto$ff.cc:266:slice$97~Q"><text x="5" y="-4" style="fill:#000; stroke:none" class="cell_$auto$ff.cc:266:slice$97">Q</text></g></g><g s:type="inputExt" transform="translate(12,677)" s:width="30" s:height="20" id="cell_clk"><text x="15" y="-4" class="nodelabel cell_clk" s:attribute="ref">clk</text><s:alias val="$_inputExt_"/><path d="M0,0 L0,20 L15,20 L30,10 L15,0 Z" class="cell_clk"/><g s:x="30" s:y="10" s:pid="Y"/></g><g s:type="inputExt" transform="translate(315,481)" s:width="30" s:height="20" id="cell_rst"><text x="15" y="-4" class="nodelabel cell_rst" s:attribute="ref">rst</text><s:alias val="$_inputExt_"/><path d="M0,0 L0,20 L15,20 L30,10 L15,0 Z" class="cell_rst"/><g s:x="30" s:y="10" s:pid="Y"/></g><g s:type="outputExt" transform="translate(728,22)" s:width="30" s:height="20" id="cell_q"><text x="15" y="-4" class="nodelabel cell_q" s:attribute="ref">q</text><s:alias val="$_outputExt_"/><path d="M30,0 L30,20 L15,20 L0,10 L15,0 Z" class="cell_q"/><g s:x="0" s:y="10" s:pid="A"/></g><g s:type="join" transform="translate(325,59)" s:width="4" s:height="40" id="cell_$join$,4,5,6,7,"><rect width="5" height="80" class="splitjoinBody" s:generic="body"/><s:alias val="$_join_"/><g s:x="5" s:y="20" s:pid="out"/><g transform="translate(0,10)" s:x="0" s:y="10" s:pid="in0"><text x="-3" y="-4" class="inputPortLabel">0</text></g><g transform="translate(0,30)" s:x="0" s:y="10" s:pid="in0"><text x="-3" y="-4" class="inputPortLabel">1</text></g><g transform="translate(0,50)" s:x="0" s:y="10" s:pid="in0"><text x="-3" y="-4" class="inputPortLabel">2</text></g><g transform="translate(0,70)" s:x="0" s:y="10" s:pid="in0"><text x="-3" y="-4" class="inputPortLabel">3</text></g></g><line x1="152" x2="285" y1="599" y2="599" class="net_4 width_1" style="stroke-width: 1"/><line x1="285" x2="285" y1="599" y2="556.5" class="net_4 width_1" style="stroke-width: 1"/><line x1="285" x2="375" y1="556.5" y2="556.5" class="net_4 width_1" style="stroke-width: 1"/><line x1="375" x2="375" y1="556.5" y2="468.5" class="net_4 width_1" style="stroke-width: 1"/><line x1="375" x2="690" y1="468.5" y2="468.5" class="net_4 width_1" style="stroke-width: 1"/><line x1="690" x2="690" y1="468.5" y2="459.5" class="net_4 width_1" style="stroke-width: 1"/><circle cx="285" cy="599" r="2" style="fill:#000" class="net_4 width_1"/><circle cx="285" cy="556.5" r="2" style="fill:#000" class="net_4 width_1"/><circle cx="375" cy="556.5" r="2" style="fill:#000" class="net_4 width_1"/><line x1="690" x2="728" y1="459.5" y2="459.5" class="net_4 width_1" style="stroke-width: 1"/><line x1="152" x2="410" y1="599" y2="599" class="net_4 width_1" style="stroke-width: 1"/><line x1="152" x2="285" y1="599" y2="599" class="net_4 width_1" style="stroke-width: 1"/><line x1="285" x2="285" y1="599" y2="556.5" class="net_4 width_1" style="stroke-width: 1"/><line x1="285" x2="690" y1="556.5" y2="556.5" class="net_4 width_1" style="stroke-width: 1"/><line x1="690" x2="690" y1="556.5" y2="547.5" class="net_4 width_1" style="stroke-width: 1"/><line x1="690" x2="728" y1="547.5" y2="547.5" class="net_4 width_1" style="stroke-width: 1"/><line x1="152" x2="285" y1="599" y2="599" class="net_4 width_1" style="stroke-width: 1"/><line x1="285" x2="285" y1="599" y2="298" class="net_4 width_1" style="stroke-width: 1"/><line x1="285" x2="375" y1="298" y2="298" class="net_4 width_1" style="stroke-width: 1"/><line x1="375" x2="375" y1="298" y2="289" class="net_4 width_1" style="stroke-width: 1"/><circle cx="285" cy="298" r="2" style="fill:#000" class="net_4 width_1"/><line x1="375" x2="410" y1="289" y2="289" class="net_4 width_1" style="stroke-width: 1"/><line x1="152" x2="285" y1="599" y2="599" class="net_4 width_1" style="stroke-width: 1"/><line x1="285" x2="285" y1="599" y2="415" class="net_4 width_1" style="stroke-width: 1"/><line x1="285" x2="375" y1="415" y2="415" class="net_4 width_1" style="stroke-width: 1"/><line x1="375" x2="375" y1="415" y2="406" class="net_4 width_1" style="stroke-width: 1"/><circle cx="285" cy="415" r="2" style="fill:#000" class="net_4 width_1"/><line x1="375" x2="410" y1="406" y2="406" class="net_4 width_1" style="stroke-width: 1"/><line x1="152" x2="285" y1="599" y2="599" class="net_4 width_1" style="stroke-width: 1"/><line x1="285" x2="285" y1="599" y2="159" class="net_4 width_1" style="stroke-width: 1"/><line x1="285" x2="355" y1="159" y2="159" class="net_4 width_1" style="stroke-width: 1"/><line x1="355" x2="355" y1="159" y2="141" class="net_4 width_1" style="stroke-width: 1"/><circle cx="285" cy="159" r="2" style="fill:#000" class="net_4 width_1"/><line x1="355" x2="410" y1="141" y2="141" class="net_4 width_1" style="stroke-width: 1"/><line x1="152" x2="285" y1="599" y2="599" class="net_4 width_1" style="stroke-width: 1"/><line x1="285" x2="285" y1="599" y2="69.5" class="net_4 width_1" style="stroke-width: 1"/><line x1="285" x2="325" y1="69.5" y2="69.5" class="net_4 width_1" style="stroke-width: 1"/><line x1="345" x2="365" y1="491" y2="491" class="net_3 width_1" style="stroke-width: 1"/><line x1="365" x2="365" y1="491" y2="479.5" class="net_3 width_1" style="stroke-width: 1"/><circle cx="365" cy="491" r="2" style="fill:#000" class="net_3 width_1"/><circle cx="365" cy="479.5" r="2" style="fill:#000" class="net_3 width_1"/><line x1="365" x2="728" y1="479.5" y2="479.5" class="net_3 width_1" style="stroke-width: 1"/><line x1="345" x2="365" y1="491" y2="491" class="net_3 width_1" style="stroke-width: 1"/><line x1="365" x2="365" y1="491" y2="639" class="net_3 width_1" style="stroke-width: 1"/><line x1="365" x2="410" y1="639" y2="639" class="net_3 width_1" style="stroke-width: 1"/><line x1="345" x2="365" y1="491" y2="491" class="net_3 width_1" style="stroke-width: 1"/><line x1="365" x2="365" y1="491" y2="351.5" class="net_3 width_1" style="stroke-width: 1"/><circle cx="365" cy="351.5" r="2" style="fill:#000" class="net_3 width_1"/><line x1="365" x2="728" y1="351.5" y2="351.5" class="net_3 width_1" style="stroke-width: 1"/><line x1="345" x2="365" y1="491" y2="491" class="net_3 width_1" style="stroke-width: 1"/><line x1="365" x2="365" y1="491" y2="221" class="net_3 width_1" style="stroke-width: 1"/><line x1="365" x2="410" y1="221" y2="221" class="net_3 width_1" style="stroke-width: 1"/><line x1="152" x2="375" y1="687" y2="687" class="net_5 width_1" style="stroke-width: 1"/><line x1="375" x2="375" y1="687" y2="619" class="net_5 width_1" style="stroke-width: 1"/><line x1="375" x2="410" y1="619" y2="619" class="net_5 width_1" style="stroke-width: 1"/><line x1="152" x2="295" y1="687" y2="687" class="net_5 width_1" style="stroke-width: 1"/><line x1="295" x2="295" y1="687" y2="567.5" class="net_5 width_1" style="stroke-width: 1"/><circle cx="295" cy="687" r="2" style="fill:#000" class="net_5 width_1"/><circle cx="295" cy="567.5" r="2" style="fill:#000" class="net_5 width_1"/><line x1="295" x2="728" y1="567.5" y2="567.5" class="net_5 width_1" style="stroke-width: 1"/><line x1="152" x2="295" y1="687" y2="687" class="net_5 width_1" style="stroke-width: 1"/><line x1="295" x2="295" y1="687" y2="309" class="net_5 width_1" style="stroke-width: 1"/><circle cx="295" cy="309" r="2" style="fill:#000" class="net_5 width_1"/><line x1="295" x2="410" y1="309" y2="309" class="net_5 width_1" style="stroke-width: 1"/><line x1="152" x2="295" y1="687" y2="687" class="net_5 width_1" style="stroke-width: 1"/><line x1="295" x2="295" y1="687" y2="426" class="net_5 width_1" style="stroke-width: 1"/><circle cx="295" cy="426" r="2" style="fill:#000" class="net_5 width_1"/><line x1="295" x2="410" y1="426" y2="426" class="net_5 width_1" style="stroke-width: 1"/><line x1="152" x2="295" y1="687" y2="687" class="net_5 width_1" style="stroke-width: 1"/><line x1="295" x2="295" y1="687" y2="170" class="net_5 width_1" style="stroke-width: 1"/><line x1="295" x2="365" y1="170" y2="170" class="net_5 width_1" style="stroke-width: 1"/><line x1="365" x2="365" y1="170" y2="161" class="net_5 width_1" style="stroke-width: 1"/><circle cx="295" cy="170" r="2" style="fill:#000" class="net_5 width_1"/><line x1="365" x2="410" y1="161" y2="161" class="net_5 width_1" style="stroke-width: 1"/><line x1="152" x2="295" y1="687" y2="687" class="net_5 width_1" style="stroke-width: 1"/><line x1="295" x2="295" y1="687" y2="89.5" class="net_5 width_1" style="stroke-width: 1"/><line x1="295" x2="325" y1="89.5" y2="89.5" class="net_5 width_1" style="stroke-width: 1"/><line x1="441" x2="690" y1="599" y2="599" class="net_9 width_1" style="stroke-width: 1"/><line x1="690" x2="690" y1="599" y2="587.5" class="net_9 width_1" style="stroke-width: 1"/><line x1="690" x2="728" y1="587.5" y2="587.5" class="net_9 width_1" style="stroke-width: 1"/><line x1="152" x2="305" y1="511" y2="511" class="net_6 width_1" style="stroke-width: 1"/><line x1="305" x2="305" y1="511" y2="404" class="net_6 width_1" style="stroke-width: 1"/><line x1="305" x2="355" y1="404" y2="404" class="net_6 width_1" style="stroke-width: 1"/><line x1="355" x2="355" y1="404" y2="329" class="net_6 width_1" style="stroke-width: 1"/><circle cx="305" cy="511" r="2" style="fill:#000" class="net_6 width_1"/><circle cx="305" cy="404" r="2" style="fill:#000" class="net_6 width_1"/><line x1="355" x2="410" y1="329" y2="329" class="net_6 width_1" style="stroke-width: 1"/><line x1="152" x2="355" y1="511" y2="511" class="net_6 width_1" style="stroke-width: 1"/><line x1="355" x2="355" y1="511" y2="446" class="net_6 width_1" style="stroke-width: 1"/><line x1="355" x2="410" y1="446" y2="446" class="net_6 width_1" style="stroke-width: 1"/><line x1="152" x2="305" y1="511" y2="511" class="net_6 width_1" style="stroke-width: 1"/><line x1="305" x2="305" y1="511" y2="181" class="net_6 width_1" style="stroke-width: 1"/><circle cx="305" cy="181" r="2" style="fill:#000" class="net_6 width_1"/><line x1="305" x2="410" y1="181" y2="181" class="net_6 width_1" style="stroke-width: 1"/><line x1="152" x2="305" y1="511" y2="511" class="net_6 width_1" style="stroke-width: 1"/><line x1="305" x2="305" y1="511" y2="109.5" class="net_6 width_1" style="stroke-width: 1"/><line x1="305" x2="325" y1="109.5" y2="109.5" class="net_6 width_1" style="stroke-width: 1"/><line x1="441" x2="690" y1="289" y2="289" class="net_11 width_1" style="stroke-width: 1"/><line x1="690" x2="690" y1="289" y2="371.5" class="net_11 width_1" style="stroke-width: 1"/><circle cx="690" cy="289" r="2" style="fill:#000" class="net_11 width_1"/><line x1="690" x2="728" y1="371.5" y2="371.5" class="net_11 width_1" style="stroke-width: 1"/><line x1="441" x2="690" y1="289" y2="289" class="net_11 width_1" style="stroke-width: 1"/><line x1="690" x2="690" y1="289" y2="121" class="net_11 width_1" style="stroke-width: 1"/><line x1="690" x2="728" y1="121" y2="121" class="net_11 width_1" style="stroke-width: 1"/><line x1="441" x2="690" y1="406" y2="406" class="net_12 width_1" style="stroke-width: 1"/><line x1="690" x2="690" y1="406" y2="391.5" class="net_12 width_1" style="stroke-width: 1"/><line x1="690" x2="728" y1="391.5" y2="391.5" class="net_12 width_1" style="stroke-width: 1"/><line x1="152" x2="355" y1="287" y2="287" class="net_7 width_1" style="stroke-width: 1"/><line x1="355" x2="355" y1="287" y2="201" class="net_7 width_1" style="stroke-width: 1"/><line x1="355" x2="410" y1="201" y2="201" class="net_7 width_1" style="stroke-width: 1"/><line x1="152" x2="275" y1="287" y2="287" class="net_7 width_1" style="stroke-width: 1"/><line x1="275" x2="275" y1="287" y2="48" class="net_7 width_1" style="stroke-width: 1"/><line x1="275" x2="690" y1="48" y2="48" class="net_7 width_1" style="stroke-width: 1"/><line x1="690" x2="690" y1="48" y2="101" class="net_7 width_1" style="stroke-width: 1"/><circle cx="275" cy="287" r="2" style="fill:#000" class="net_7 width_1"/><line x1="690" x2="728" y1="101" y2="101" class="net_7 width_1" style="stroke-width: 1"/><line x1="152" x2="275" y1="287" y2="287" class="net_7 width_1" style="stroke-width: 1"/><line x1="275" x2="275" y1="287" y2="149" class="net_7 width_1" style="stroke-width: 1"/><line x1="275" x2="325.5" y1="149" y2="149" class="net_7 width_1" style="stroke-width: 1"/><circle cx="275" cy="149" r="2" style="fill:#000" class="net_7 width_1"/><line x1="325.5" x2="325.5" y1="149" y2="130" class="net_7 width_1" style="stroke-width: 1"/><line x1="441" x2="728" y1="141" y2="141" class="net_14 width_1" style="stroke-width: 1"/><line x1="42" x2="62" y1="687" y2="687" class="net_2 width_1" style="stroke-width: 1"/><line x1="62" x2="62" y1="687" y2="599" class="net_2 width_1" style="stroke-width: 1"/><circle cx="62" cy="687" r="2" style="fill:#000" class="net_2 width_1"/><circle cx="62" cy="599" r="2" style="fill:#000" class="net_2 width_1"/><line x1="62" x2="121" y1="599" y2="599" class="net_2 width_1" style="stroke-width: 1"/><line x1="42" x2="121" y1="687" y2="687" class="net_2 width_1" style="stroke-width: 1"/><line x1="42" x2="62" y1="687" y2="687" class="net_2 width_1" style="stroke-width: 1"/><line x1="62" x2="62" y1="687" y2="511" class="net_2 width_1" style="stroke-width: 1"/><circle cx="62" cy="511" r="2" style="fill:#000" class="net_2 width_1"/><line x1="62" x2="121" y1="511" y2="511" class="net_2 width_1" style="stroke-width: 1"/><line x1="42" x2="62" y1="687" y2="687" class="net_2 width_1" style="stroke-width: 1"/><line x1="62" x2="62" y1="687" y2="287" class="net_2 width_1" style="stroke-width: 1"/><line x1="62" x2="121" y1="287" y2="287" class="net_2 width_1" style="stroke-width: 1"/><line x1="759" x2="1028" y1="459.5" y2="459.5" class="net_8 width_1" style="stroke-width: 1"/><line x1="1028" x2="1028" y1="459.5" y2="762.5" class="net_8 width_1" style="stroke-width: 1"/><line x1="1028" x2="72" y1="762.5" y2="762.5" class="net_8 width_1" style="stroke-width: 1"/><line x1="72" x2="72" y1="762.5" y2="619" class="net_8 width_1" style="stroke-width: 1"/><line x1="72" x2="121" y1="619" y2="619" class="net_8 width_1" style="stroke-width: 1"/><line x1="759" x2="1008" y1="547.5" y2="547.5" class="net_10 width_1" style="stroke-width: 1"/><line x1="1008" x2="1008" y1="547.5" y2="729.5" class="net_10 width_1" style="stroke-width: 1"/><line x1="1008" x2="92" y1="729.5" y2="729.5" class="net_10 width_1" style="stroke-width: 1"/><line x1="92" x2="92" y1="729.5" y2="707" class="net_10 width_1" style="stroke-width: 1"/><line x1="92" x2="121" y1="707" y2="707" class="net_10 width_1" style="stroke-width: 1"/><line x1="759" x2="1018" y1="351.5" y2="351.5" class="net_13 width_1" style="stroke-width: 1"/><line x1="1018" x2="1018" y1="351.5" y2="740.5" class="net_13 width_1" style="stroke-width: 1"/><line x1="1018" x2="82" y1="740.5" y2="740.5" class="net_13 width_1" style="stroke-width: 1"/><line x1="82" x2="82" y1="740.5" y2="531" class="net_13 width_1" style="stroke-width: 1"/><line x1="82" x2="121" y1="531" y2="531" class="net_13 width_1" style="stroke-width: 1"/><line x1="759" x2="1038" y1="101" y2="101" class="net_15 width_1" style="stroke-width: 1"/><line x1="1038" x2="1038" y1="101" y2="751.5" class="net_15 width_1" style="stroke-width: 1"/><line x1="1038" x2="52" y1="751.5" y2="751.5" class="net_15 width_1" style="stroke-width: 1"/><line x1="52" x2="52" y1="751.5" y2="307" class="net_15 width_1" style="stroke-width: 1"/><line x1="52" x2="121" y1="307" y2="307" class="net_15 width_1" style="stroke-width: 1"/><line x1="331" x2="355" y1="79.5" y2="79.5" class="net_4,5,6,7 width_4" style="stroke-width: 2"/><line x1="355" x2="355" y1="79.5" y2="32" class="net_4,5,6,7 width_4" style="stroke-width: 2"/><line x1="355" x2="728" y1="32" y2="32" class="net_4,5,6,7 width_4" style="stroke-width: 2"/><rect x="531.5" y="27" width="16" height="9" class="net_4,5,6,7 width_4 busLabel_4" style="fill: white; stroke: none"/><text x="530.5" y="35" class="net_4,5,6,7 width_4 busLabel_4">/4/</text></svg>